HIERARCHY
ROOT Hips
{
  OFFSET 53.8358 54.3591 -1.9226
  CHANNELS 6 Xposition Yposition Zposition Zrotation Xrotation Yrotation
  JOINT spine
  {
    OFFSET 0 7.96568 0.458067
    CHANNELS 3 Zrotation Xrotation Yrotation
    JOINT spine1
    {
      OFFSET 0 10.2431 0
      CHANNELS 3 Zrotation Xrotation Yrotation
      JOINT spine2
      {
        OFFSET 0 9.81475 0
        CHANNELS 3 Zrotation Xrotation Yrotation
        JOINT Neck
        {
          OFFSET 0 25.1986 1.20138
          CHANNELS 3 Zrotation Xrotation Yrotation
          JOINT Head
          {
            OFFSET 0 7.61315 0
            CHANNELS 3 Zrotation Xrotation Yrotation
            End Site
            {
              OFFSET 0 18.4281 -6.07733
            }
          }
        }
        JOINT RightShoulder
        {
          OFFSET -4.1327 10.5992 -0.575451
          CHANNELS 3 Zrotation Xrotation Yrotation
          JOINT RightArm
          {
            OFFSET 0 13.9018 0
            CHANNELS 3 Zrotation Xrotation Yrotation
            JOINT RightArmRoll
            {
              OFFSET 0 7.01788 0
              CHANNELS 3 Zrotation Xrotation Yrotation
              JOINT RightForeArm
              {
                OFFSET 0 20.4406 0
                CHANNELS 3 Zrotation Xrotation Yrotation
                JOINT RightForeArmRoll
                {
                  OFFSET 0 7.87515 0
                  CHANNELS 3 Zrotation Xrotation Yrotation
                  JOINT RightHand
                  {
                    OFFSET 0 15.8037 0
                    CHANNELS 3 Zrotation Xrotation Yrotation
                    End Site
                    {
                      OFFSET 0 0 0
                    }
                  }
                }
              }
            }
          }
        }
        JOINT LeftShoulder
        {
          OFFSET 4.1327 10.5992 -0.575451
          CHANNELS 3 Zrotation Xrotation Yrotation
          JOINT LeftArm
          {
            OFFSET 0 13.9018 0
            CHANNELS 3 Zrotation Xrotation Yrotation
            JOINT LeftArmRoll
            {
              OFFSET 0 7.01788 0
              CHANNELS 3 Zrotation Xrotation Yrotation
              JOINT LeftForeArm
              {
                OFFSET 0 20.4406 0
                CHANNELS 3 Zrotation Xrotation Yrotation
                JOINT LeftForeArmRoll
                {
                  OFFSET 0 7.87516 0
                  CHANNELS 3 Zrotation Xrotation Yrotation
                  JOINT LeftHand
                  {
                    OFFSET 0 15.8037 0
                    CHANNELS 3 Zrotation Xrotation Yrotation
                    End Site
                    {
                      OFFSET 0 0 0
                    }
                  }
                }
              }
            }
          }
        }
      }
    }
  }
  JOINT RightUpLeg
  {
    OFFSET -7.06048 -1.2947 -1.0861
    CHANNELS 3 Zrotation Xrotation Yrotation
    JOINT RightUpLegRoll
    {
      OFFSET 0 18.5308 0
      CHANNELS 3 Zrotation Xrotation Yrotation
      JOINT RightLeg
      {
        OFFSET 0 -22.9476 0
        CHANNELS 3 Zrotation Xrotation Yrotation
        JOINT RightLegRoll
        {
          OFFSET 0 23.0226 0
          CHANNELS 3 Zrotation Xrotation Yrotation
          JOINT RightFoot
          {
            OFFSET 0 19.1625 0
            CHANNELS 3 Zrotation Xrotation Yrotation
            JOINT RightToeBase
            {
              OFFSET 0 16.0188 0
              CHANNELS 3 Zrotation Xrotation Yrotation
              End Site
              {
                OFFSET 0.00678979 7.75782 -0.894206
              }
            }
          }
        }
      }
    }
  }
  JOINT LeftUpLeg
  {
    OFFSET 7.06048 -1.2947 -1.0861
    CHANNELS 3 Zrotation Xrotation Yrotation
    JOINT LeftUpLegRoll
    {
      OFFSET 0 18.5309 0
      CHANNELS 3 Zrotation Xrotation Yrotation
      JOINT LeftLeg
      {
        OFFSET 0 22.9475 0
        CHANNELS 3 Zrotation Xrotation Yrotation
        JOINT LeftLegRoll
        {
          OFFSET 0 23.2355 0
          CHANNELS 3 Zrotation Xrotation Yrotation
          JOINT LeftFoot
          {
            OFFSET 0 18.9496 0
            CHANNELS 3 Zrotation Xrotation Yrotation
            JOINT LeftToeBase
            {
              OFFSET 0 16.0188 0
              CHANNELS 3 Zrotation Xrotation Yrotation
              End Site
              {
                OFFSET -0.0304289 7.75782 -0.894206
              }
            }
          }
        }
      }
    }
  }
}
MOTION
Frames: 8
Frame Time: 0.00208333
53.7969 55.0151 -0.465216 1.3549 -0.423421 1.12245 0.503928 4.47847 -0.726799 1.0953 12.9523 -1.57398 1.1194 14.597 -1.59772 -11.9209 -5.10793 -0.953645 9.65688 16.7514 -2.81596 57.1154 -5.01546 -2.99682 106.593 22.7526 -37.0779 3.18055e-015 0 -3.18055e-015 34.8972 86.7524 -40.0412 5.97744e-006 -3.40164e-006 -2.99999 8.02894 -4.95145 0.697685 -56.4271 -4.06815 2.33658 -101.069 9.33297 47.1665 8.85011e-006 -2.62089e-006 3.04584e-006 171.515 81.3588 -158.304 5.12419e-006 -6.30407e-006 3.00001 -8.0289 -4.95141 -0.697699 98.716 82.0422 84.7044 180 7.01447e-015 178.553 -34.8324 84.86 35.0606 3.02929e-006 2.93655e-007 2.09663 -19.9886 67.0997 18.7828 8.24671 26.8809 -3.53269 -94.4831 81.902 -89.4663 4.54188e-006 -4.6773e-006 -1.36679 144.62 -85.0912 145.016 -1.36568e-006 -1.61706e-006 -2.07529 15.6697 62.4439 -15.7973 -8.43927 30.0764 3.23949 
53.7933 55.0106 -0.478592 1.35106 -0.530646 1.11077 0.502924 4.4701 -0.726834 1.09302 12.9357 -1.57366 1.1171 14.5804 -1.59735 -11.8482 -5.11138 -0.93513 9.54091 16.8223 -2.78885 57.205 -5.01532 -3.00254 106.572 22.88 -36.9972 -4.77083e-015 -6.36111e-015 -0 34.3153 86.5816 -39.3652 5.97744e-006 -3.40164e-006 -2.99999 8.02894 -4.95145 0.697685 -56.5224 -4.07154 2.34586 -101.028 9.41618 47.0718 8.85011e-006 -2.62089e-006 3.04584e-006 171.623 81.3432 -158.427 5.12419e-006 -6.30407e-006 3.00001 -8.0289 -4.95141 -0.697699 99.3884 82.0266 84.0388 180 7.01446e-015 178.551 -34.8528 84.8561 35.0855 3.02929e-006 2.93655e-007 2.09735 -19.991 67.0932 18.7774 8.24654 26.8782 -3.5321 -95.11 81.8654 -88.8371 4.54188e-006 -4.6773e-006 -1.36759 144.601 -85.0876 144.995 -1.36568e-006 -1.61706e-006 -2.07497 15.6639 62.4304 -15.7901 -8.44108 30.09 3.24978 
53.8117 54.9995 -0.478191 1.34634 -0.638017 1.09775 0.501945 4.46196 -0.726678 1.09072 12.9195 -1.57293 1.11478 14.5642 -1.59657 -11.7688 -5.11796 -0.916222 9.41635 16.8966 -2.75993 57.2921 -5.01633 -3.00884 106.554 23.0086 -36.9201 2.38542e-015 1.59028e-015 -3.18055e-015 33.7756 86.4087 -38.7313 5.97744e-006 -3.40164e-006 -2.99999 8.02894 -4.95145 0.697685 -56.6158 -4.07935 2.35789 -100.988 9.5036 46.9839 8.85011e-006 -2.62089e-006 3.04584e-006 171.726 81.3258 -158.543 5.12419e-006 -6.30407e-006 3.00001 -8.0289 -4.95141 -0.697699 100.067 82.0116 83.3681 180 7.01446e-015 178.549 -34.8747 84.8525 35.112 3.02929e-006 2.93655e-007 2.09812 -19.9944 67.0875 18.7727 8.24632 26.8749 -3.53142 -95.7309 81.8262 -88.2134 4.54188e-006 -4.6773e-006 -1.36835 144.579 -85.0839 144.97 -1.36568e-006 -1.61706e-006 -2.07464 15.6585 62.4171 -15.783 -8.44286 30.1033 3.25985 
53.8046 54.9869 -0.486425 1.34091 -0.745477 1.08363 0.500983 4.45405 -0.726354 1.0884 12.9039 -1.57184 1.11243 14.5485 -1.59543 -11.6841 -5.12715 -0.897106 9.28503 16.9735 -2.72964 57.3766 -5.01838 -3.01564 106.539 23.1382 -36.8465 3.97569e-015 9.54166e-015 -9.54166e-015 33.2742 86.2342 -38.1355 5.97744e-006 -3.40164e-006 -2.99999 8.02894 -4.95145 0.697685 -56.7072 -4.09106 2.37233 -100.95 9.595 46.902 8.85011e-006 -2.62089e-006 3.04584e-006 171.826 81.307 -158.655 5.12419e-006 -6.30407e-006 3.00001 -8.0289 -4.95141 -0.697699 100.751 81.9969 82.6934 180 7.01445e-015 178.546 -34.8987 84.8493 35.1403 3.02929e-006 2.93655e-007 2.09892 -19.9987 67.0825 18.7685 8.24606 26.8712 -3.53067 -96.3456 81.7847 -87.5953 4.54188e-006 -4.6773e-006 -1.36908 144.554 -85.08 144.942 -1.36568e-006 -1.61706e-006 -2.07431 15.6532 62.4041 -15.7762 -8.44463 30.1162 3.26974 
53.7829 54.9895 -0.501408 1.33493 -0.852969 1.06866 0.500026 4.44636 -0.725883 1.08604 12.8887 -1.57043 1.11003 14.5333 -1.59397 -11.5953 -5.13843 -0.877969 9.14882 17.0523 -2.69842 57.4585 -5.02134 -3.02286 106.528 23.2683 -36.7761 6.36111e-015 -2.38542e-015 3.18055e-015 32.8074 86.0581 -37.5743 5.97744e-006 -3.40164e-006 -2.99999 8.02894 -4.95145 0.697685 -56.7968 -4.10615 2.38885 -100.914 9.69015 46.8253 8.85011e-006 -2.62089e-006 3.04584e-006 171.923 81.2871 -158.762 5.12419e-006 -6.30407e-006 3.00001 -8.0289 -4.95141 -0.697699 101.438 81.9822 82.016 180 7.01444e-015 178.544 -34.925 84.8464 35.1708 3.02929e-006 2.93655e-007 2.09975 -20.0036 67.078 18.7646 8.24579 26.8671 -3.52987 -96.9541 81.7412 -86.9832 4.54188e-006 -4.6773e-006 -1.36979 144.525 -85.0761 144.91 -1.36568e-006 -1.61706e-006 -2.07397 15.6482 62.3911 -15.7695 -8.44639 30.1288 3.2795 
53.7866 54.9794 -0.511177 1.32854 -0.960434 1.05306 0.499066 4.43888 -0.725287 1.08362 12.8739 -1.56875 1.10757 14.5185 -1.59224 -11.5034 -5.15126 -0.858997 9.00956 17.1324 -2.6667 57.5376 -5.0251 -3.0304 106.519 23.3988 -36.7084 2.06736e-014 1.35174e-014 -6.36111e-015 32.3723 85.8808 -37.0448 5.97744e-006 -3.40164e-006 -2.99999 8.02894 -4.95145 0.697685 -56.8846 -4.12412 2.4071 -100.88 9.78881 46.7532 8.85011e-006 -2.62089e-006 3.04584e-006 172.017 81.2662 -158.865 5.12419e-006 -6.30407e-006 3.00001 -8.0289 -4.95141 -0.697699 102.127 81.9672 81.3372 180 7.01444e-015 178.542 -34.9536 84.8438 35.2037 3.02929e-006 2.93655e-007 2.10059 -20.0088 67.0737 18.761 8.24549 26.8627 -3.52903 -97.5562 81.6961 -86.3771 4.54188e-006 -4.6773e-006 -1.37047 144.493 -85.0723 144.875 -1.36568e-006 -1.61706e-006 -2.07364 15.6433 62.3782 -15.7629 -8.44814 30.1412 3.28919 
53.7873 54.9602 -0.517549 1.32192 -1.06782 1.03708 0.498093 4.4316 -0.724589 1.08112 12.8595 -1.56685 1.10504 14.5041 -1.59028 -11.4097 -5.16512 -0.840377 8.86911 17.2132 -2.63491 57.6138 -5.02953 -3.03819 106.513 23.5291 -36.6432 1.90833e-014 3.97569e-015 -6.36111e-015 31.9661 85.7023 -36.5442 5.97744e-006 -3.40164e-006 -2.99999 8.02894 -4.95145 0.697685 -56.9706 -4.14445 2.42675 -100.849 9.89075 46.6849 8.85011e-006 -2.62089e-006 3.04584e-006 172.108 81.2446 -158.966 5.12419e-006 -6.30407e-006 3.00001 -8.0289 -4.95141 -0.697699 102.816 81.9516 80.6584 180 7.01443e-015 178.539 -34.985 84.8416 35.2392 3.02929e-006 2.93655e-007 2.10143 -20.0142 67.0694 18.7574 8.24518 26.8582 -3.52817 -98.1523 81.6497 -85.7771 4.54188e-006 -4.6773e-006 -1.37115 144.458 -85.0687 144.837 -1.36568e-006 -1.61706e-006 -2.0733 15.6384 62.3654 -15.7563 -8.44989 30.1535 3.29884 
53.7805 54.9635 -0.542422 1.31524 -1.17506 1.02095 0.497097 4.42452 -0.723812 1.07855 12.8455 -1.56477 1.10242 14.4901 -1.58814 -11.3155 -5.17948 -0.822295 8.72933 17.2941 -2.60351 57.6869 -5.03451 -3.04613 106.511 23.6591 -36.5802 -5.56597e-015 0 -0 31.5861 85.5231 -36.0702 5.97744e-006 -3.40164e-006 -2.99999 8.02894 -4.95145 0.697685 -57.0548 -4.16662 2.44746 -100.82 9.99573 46.6196 8.85011e-006 -2.62089e-006 3.04584e-006 172.198 81.2227 -159.064 5.12419e-006 -6.30407e-006 3.00001 -8.0289 -4.95141 -0.697699 103.503 81.9351 79.9812 180 7.01442e-015 178.537 -35.0195 84.8398 35.2777 3.02929e-006 2.93655e-007 2.10224 -20.0195 67.065 18.7536 8.24487 26.8537 -3.52731 -98.7424 81.6023 -85.183 4.54188e-006 -4.6773e-006 -1.37183 144.42 -85.0654 144.796 -1.36568e-006 -1.61706e-006 -2.07297 15.6336 62.3525 -15.7497 -8.45165 30.1656 3.30852 
